# xmcd
#
# Track frame offsets:
#	150
#	44278
#	123501
#	153466
#	214092
#	232823
#	274318
#	313344
#
# Disc length: 4460 seconds
#
# Revision: 0
# Processed by: cddbd v1.5.2PL0 Copyright (c) Steve Scherf et al.
# Submitted via: audiograbber 1.83.01
#
DISCID=70116a08
DTITLE=Grateful Dead - 94-10-05 The Spectrum, Philadelphia PA
DYEAR=1900
DGENRE=
TTITLE0=Playing In The Band
TTITLE1=Uncle John's Band
TTITLE2=Drums
TTITLE3=Space
TTITLE4=I Need A Miracle
TTITLE5=Standing On The Moon
TTITLE6=Sugar Magnolia
TTITLE7=The Mighty Quinn
EXTD=
EXTT0=
EXTT1=
EXTT2=
EXTT3=
EXTT4=
EXTT5=
EXTT6=
EXTT7=
PLAYORDER=
